<svg width="61" height="37" viewBox="0 0 61 37" fill="none" xmlns="http://www.w3.org/2000/svg">
<path d="M48.2227 1.5C51.3407 1.50006 53.9964 2.09546 56.0342 3.44727L56.4336 3.72852L56.4443 3.73633C58.4676 5.26897 59.5 7.38543 59.5 9.94141C59.5 12.686 57.653 15.337 54.748 17.877C52.3182 20.0009 51.4316 21.7729 51.4316 23.1953C51.4316 23.5809 51.413 23.9476 51.3633 24.2744C51.3189 24.5658 51.2277 24.9862 50.9824 25.3623L50.957 25.4014C50.584 25.9361 50.0497 26.2243 49.5625 26.3779C49.381 26.4352 49.1924 26.4773 49 26.5088C49.9106 26.6524 50.7541 27.0181 51.4121 27.71C52.2884 28.6315 52.5938 29.8788 52.5938 31.1699C52.5937 32.35 52.2925 33.509 51.4287 34.3604C50.569 35.2077 49.4056 35.4999 48.2227 35.5C46.9529 35.5 45.731 35.1578 44.8477 34.2188C43.9807 33.297 43.6798 32.0528 43.6797 30.7656C43.6797 29.59 43.9749 28.4322 44.8291 27.5801C45.4221 26.9886 46.1623 26.6662 46.9531 26.5244C46.7536 26.5017 46.5617 26.4744 46.3799 26.4346C45.923 26.3345 45.3454 26.1383 44.8994 25.6875L44.8779 25.666L44.8584 25.6445C44.4912 25.2424 44.3405 24.7544 44.2666 24.3984C44.1868 24.0141 44.1582 23.5881 44.1582 23.1504C44.1582 21.4803 44.5998 19.9238 45.4795 18.5146L45.4824 18.5098C46.1329 17.4768 47.2604 16.2332 48.7617 14.8066L49.1641 14.4141C51.0914 12.486 51.748 11.0527 51.748 10.0762C51.748 9.19418 51.4824 8.55996 51.002 8.05859H51.001C50.4606 7.5027 49.5668 7.10555 48.0518 7.10547C46.3967 7.10547 45.4329 7.50189 44.8809 8.02832C44.3423 8.54208 43.9443 9.42031 43.9443 10.9521C43.9443 11.631 43.8198 12.6507 42.9961 13.2969L42.9971 13.2979C42.9956 13.299 42.9936 13.2997 42.9922 13.3008C42.9907 13.3019 42.9897 13.3036 42.9883 13.3047L42.9873 13.3037C42.5658 13.6321 42.0627 13.7482 41.7305 13.8027C41.3451 13.866 40.9022 13.8896 40.4277 13.8896C39.7943 13.8896 39.1852 13.8345 38.6475 13.6807C38.135 13.534 37.5573 13.2569 37.1416 12.7227L37.1396 12.7246C37.1312 12.7141 37.1244 12.702 37.1162 12.6914C37.1106 12.6839 37.1032 12.6775 37.0977 12.6699L37.0996 12.6689C36.7987 12.2697 36.6685 11.8106 36.6025 11.459C36.5279 11.0611 36.5 10.614 36.5 10.1436C36.5 7.54208 37.6994 5.40609 39.8848 3.81055C42.0667 2.21755 44.8964 1.5 48.2227 1.5Z" stroke="white" stroke-width="3"/>
<path d="M21.5928 1.5C22.1036 1.50005 22.7459 1.65366 23.2285 2.20117C23.6793 2.71265 23.7734 3.32702 23.7734 3.77246V5.1416C23.7734 5.58706 23.6793 6.20129 23.2285 6.71289C22.7459 7.26058 22.1036 7.41401 21.5928 7.41406H9.93848L9.6377 12.999C10.8685 12.5172 12.1856 12.2754 13.5791 12.2754C16.7241 12.2754 19.3848 13.276 21.4111 15.3574L21.6055 15.5615L21.6074 15.5635C23.566 17.6936 24.5 20.402 24.5 23.5566C24.4999 26.9009 23.5138 29.7633 21.4492 32.0117L21.4424 32.0186C19.2605 34.365 16.3753 35.5 12.9434 35.5C9.80299 35.5 7.09462 34.6455 4.94336 32.832C2.63424 30.9017 1.50011 28.2857 1.5 25.1465C1.5 24.9132 1.50377 24.7037 1.51367 24.5303C1.51966 24.4253 1.53401 24.1339 1.62598 23.8652L1.6543 23.7842L1.69043 23.708C2.16526 22.7075 3.18026 22.5645 3.7041 22.5645H5.24707C5.48919 22.5645 5.74668 22.5769 5.99121 22.6201C6.17627 22.6529 6.53954 22.7336 6.87891 22.9854L6.88086 22.9844C6.89594 22.9954 6.90936 23.0083 6.92383 23.0195C6.93461 23.0281 6.94633 23.036 6.95703 23.0449L6.95508 23.0459C7.34596 23.365 7.5085 23.7747 7.5791 24.0322C7.65842 24.3217 7.67773 24.613 7.67773 24.8594C7.67782 26.3089 8.13528 27.4088 9.00781 28.2793C9.87317 29.1425 10.9969 29.6074 12.5117 29.6074C14.3109 29.6074 15.5862 29.0322 16.5166 27.9746C17.4127 26.9438 17.9131 25.5728 17.9131 23.7324C17.913 21.9666 17.4639 20.6476 16.6738 19.6562H16.6729C15.8452 18.6462 14.7039 18.1016 13.0566 18.1016C11.7578 18.1016 10.4583 18.5368 9.13184 19.5107C8.52621 19.9573 7.81929 20.2207 7.04102 20.2207H5.61035C5.27806 20.2207 4.77651 20.1778 4.31348 19.8926C3.73111 19.5338 3.42984 18.9312 3.42969 18.3018V18.2314L3.43652 18.1621L3.45605 17.9424L4.31738 2.91406L4.39844 1.5H21.5928Z" stroke="white" stroke-width="3"/>
</svg>
