<svg width="57" height="42" viewBox="0 0 57 42" fill="none" xmlns="http://www.w3.org/2000/svg">
<path d="M35.2314 21.25C36.3691 21.25 37.3694 21.6385 38.1904 22.4102L38.1914 22.4111C39.036 23.2064 39.4707 24.2037 39.4707 25.3584C39.4707 26.6795 38.9253 27.8163 37.9043 28.7383C37.4619 29.1437 36.8148 29.6698 35.9746 30.3115L35.9756 30.3125C34.9674 31.0861 34.3869 31.55 34.1914 31.7305C33.9723 31.9385 33.7882 32.1434 33.6348 32.3438H37.1162L37.165 31.8223C37.1831 31.6168 37.2518 31.3478 37.4658 31.1279C37.6957 30.8919 37.986 30.8204 38.2246 30.8203H38.7207C38.8856 30.8203 39.1465 30.8476 39.3799 31.0225C39.6538 31.2279 39.7499 31.5267 39.75 31.7793C39.75 31.8959 39.7415 32.0146 39.7266 32.1338L39.457 34.2998L39.375 34.957H30.3223L30.376 34.1572C30.487 32.5054 31.1417 31.0928 32.3291 29.958L32.3311 29.957C32.8206 29.4924 33.4367 28.9922 34.1729 28.458L34.1738 28.457C35.0489 27.8239 35.6104 27.3514 35.9033 27.0293C36.415 26.4581 36.622 25.9174 36.6221 25.3936C36.6221 24.8594 36.4637 24.5133 36.2041 24.2676L36.2002 24.2637C35.9353 24.0097 35.568 23.8555 35.0225 23.8555C34.3347 23.8555 33.9496 24.0438 33.7217 24.2988C33.4795 24.57 33.293 25.052 33.293 25.8809C33.293 25.9838 33.288 26.0918 33.2744 26.1924C33.2664 26.2514 33.24 26.4192 33.1387 26.5859L33.1416 26.5879C33.1354 26.5982 33.1275 26.6074 33.1211 26.6172C33.1166 26.6239 33.1141 26.632 33.1094 26.6387L33.1074 26.6367C32.958 26.8511 32.7508 26.9452 32.6182 26.9854C32.4718 27.0296 32.3271 27.0391 32.2119 27.0391H31.7334C31.5178 27.0391 31.0033 26.9939 30.7578 26.5029L30.748 26.4834L30.7393 26.4629C30.6738 26.31 30.6644 26.1462 30.6611 26.0996C30.655 26.0132 30.6523 25.9111 30.6523 25.8018C30.6524 24.4788 31.0501 23.3468 31.9102 22.4941L31.9121 22.4922C32.7752 21.6436 33.9095 21.25 35.2314 21.25Z" stroke="#222222" stroke-width="1.5"/>
<path d="M22.5674 32.3359L24.4971 32.3428H24.4961C24.7069 32.343 25.0037 32.3836 25.2568 32.5918C25.5386 32.8236 25.626 33.1434 25.626 33.4062V33.8936C25.626 34.1016 25.5775 34.397 25.3496 34.6406C25.1129 34.8937 24.8087 34.957 24.582 34.957H17.8994C17.7958 34.957 17.6869 34.9531 17.5859 34.9395C17.532 34.9322 17.3617 34.9095 17.1934 34.8076V34.8086C17.1719 34.7956 17.15 34.7813 17.1289 34.7656V34.7646C16.9425 34.6302 16.8465 34.4503 16.7998 34.3115C16.7494 34.1619 16.7383 34.0158 16.7383 33.9023V33.3447C16.7384 33.0912 16.8294 32.7856 17.1055 32.5703C17.346 32.3829 17.6198 32.3516 17.8008 32.3516H19.6797V24.709H17.332C17.2365 24.709 17.1312 24.705 17.0303 24.6895C16.974 24.6808 16.7438 24.6484 16.5498 24.4756C16.3386 24.2874 16.2893 24.0445 16.2754 23.9727C16.2544 23.864 16.25 23.7547 16.25 23.6631V23.167C16.25 22.9323 16.3273 22.6325 16.5918 22.4131C16.8294 22.2159 17.1037 22.1817 17.2832 22.1816H18.5732C19.1597 22.1816 19.5345 22.1083 19.752 22.0137C19.9424 21.9308 19.9576 21.8607 19.9648 21.8311L20.1035 21.2637L20.6875 21.2588L21.8115 21.25L22.5674 21.2441V32.3359Z" stroke="#222222" stroke-width="1.5"/>
<path d="M48.4375 18.2429L46.4361 38.2731C46.4361 38.2731 46.6951 40.7798 28.6737 40.9892C10.6523 41.1987 10.411 38.2731 10.411 38.2731L9.17632 27.6553L8.43555 18.2429C8.43555 18.2429 8.90616 15.5559 28.6737 15.5559C46.9574 15.5559 48.4375 18.2429 48.4375 18.2429Z" stroke="#222222" stroke-width="2"/>
<path d="M4.71937 24L6.20092 33.877C6.20092 33.877 1.32116 32.0819 1.01548 29.4324C0.721206 26.8816 4.71937 24 4.71937 24Z" stroke="#222222" stroke-width="2"/>
<path d="M51.4818 24L50.0003 33.877C50.0003 33.877 54.88 32.0819 55.1857 29.4324C55.48 26.8816 51.4818 24 51.4818 24Z" stroke="#222222" stroke-width="2"/>
<path d="M27.3763 1C16.7419 1.00005 16 13 16 13C24.8878 11.7143 30.0813 11.7143 39 13C39 13 38.0108 0.999945 27.3763 1Z" stroke="#222222" stroke-width="2"/>
</svg>
