<svg width="61" height="38" viewBox="0 0 61 38" fill="none" xmlns="http://www.w3.org/2000/svg">
<path d="M48.4307 2.5C51.0453 2.5 53.3539 3.33416 55.2871 4.99414L55.668 5.33789L55.6689 5.33887C57.734 7.28318 58.793 9.70953 58.793 12.5293C58.7929 15.7597 57.4637 18.5419 54.9463 20.8145L54.9473 20.8154C53.837 21.833 52.2037 23.1601 50.0723 24.7881L50.0732 24.7891C47.5284 26.7418 46.0391 27.9301 45.5205 28.4072C44.711 29.1746 44.0759 29.9308 43.5938 30.6719H53.585L53.7441 28.9814C53.785 28.5135 53.938 27.932 54.3945 27.4629C54.8828 26.9613 55.504 26.8047 56.0332 26.8047H57.293C57.6728 26.8047 58.2309 26.8687 58.7227 27.2373C59.2957 27.667 59.4999 28.2922 59.5 28.835C59.5 29.1119 59.4804 29.3962 59.4443 29.6846L58.7588 35.1855L58.5957 36.5H36.3955L36.5029 34.8994C36.7782 30.8039 38.3984 27.3138 41.3398 24.5029L41.3428 24.499C42.5692 23.3349 44.12 22.0776 45.9805 20.7275L45.9824 20.7266C48.2025 19.1202 49.6555 17.9012 50.4307 17.0508C51.7872 15.5395 52.3672 14.0707 52.3672 12.6172C52.3672 11.2606 51.9854 10.3039 51.3164 9.60156L51.1719 9.45703C50.4104 8.72658 49.3705 8.30566 47.9004 8.30566C46.0787 8.30569 44.9737 8.80777 44.2949 9.56738C43.5874 10.3591 43.1026 11.6973 43.1025 13.8545C43.1025 14.1076 43.0927 14.3615 43.0615 14.5918C43.042 14.7361 42.9883 15.0967 42.7764 15.4434L42.7783 15.4443C42.7695 15.4591 42.7581 15.4721 42.749 15.4863C42.7366 15.5053 42.7253 15.5252 42.7119 15.5439L42.71 15.542C42.4012 15.9869 41.9676 16.1856 41.6777 16.2734C41.3591 16.3699 41.0355 16.3935 40.7627 16.3936H39.5469C39.028 16.3935 37.9446 16.2804 37.4316 15.2549L37.4121 15.2148L37.3945 15.1748C37.2584 14.8572 37.2365 14.5059 37.2275 14.3809C37.2129 14.1752 37.207 13.9285 37.207 13.6553C37.2071 10.3801 38.1886 7.6167 40.2812 5.54199L40.2852 5.53809C42.387 3.47169 45.1578 2.50005 48.4307 2.5Z" stroke="white" stroke-width="3"/>
<path d="M16.7334 30.6523L22.0371 30.6699H22.0361C22.5259 30.6704 23.1706 30.7656 23.7109 31.21C24.3089 31.7018 24.5 32.3836 24.5 32.9658V34.2041C24.5 34.6766 24.3912 35.3098 23.9092 35.8252C23.4095 36.3595 22.7619 36.4999 22.2559 36.5H5.2832C5.02848 36.5 4.77289 36.4902 4.54199 36.459C4.39138 36.4386 3.95329 36.3789 3.56934 36.0938V36.0928C3.17938 35.8138 2.97602 35.4358 2.875 35.1357C2.76645 34.8133 2.74026 34.491 2.74023 34.2266V32.8105C2.74034 32.2597 2.93646 31.6166 3.5166 31.1641C4.0262 30.7667 4.61681 30.6914 5.03516 30.6914H10.21V10.4746H3.84375C3.61052 10.4746 3.36599 10.4646 3.13867 10.4297C3.00074 10.4085 2.52275 10.3379 2.12598 9.98438C1.69483 9.60013 1.59077 9.09989 1.55859 8.93359C1.51213 8.69337 1.50001 8.4447 1.5 8.22363V6.96289C1.5 6.45132 1.66721 5.82041 2.22168 5.36035C2.72257 4.9448 3.30975 4.86621 3.71973 4.86621H6.99512C8.50908 4.8662 9.52381 4.67661 10.1494 4.4043C10.7211 4.15546 10.867 3.89233 10.9219 3.66699L11.1992 2.53125L12.3682 2.52246L15.2217 2.5L16.7334 2.48828V30.6523Z" stroke="white" stroke-width="3"/>
</svg>
