<svg width="60" height="38" viewBox="0 0 60 38" fill="none" xmlns="http://www.w3.org/2000/svg">
<path d="M2 35.0577C2 35.0577 4.73914 19.0385 11.5 12.0577C17.5751 5.78489 22.7801 2.52479 31.5 2.05766C41.2803 1.53371 49.5 4.5581 54.5 12.0577C56.7626 15.4514 57.6275 17.6692 57.5 21.5577C57.3134 27.2474 56.5408 32.0586 51.5 34.5581C47 36.7895 42 37.0581 38 34.0577C35.3816 32.0936 34.2853 28.3458 36 25.5577C37.3298 23.3955 39.7063 21.9702 42 23.0577C43.6645 23.8469 45.6198 26.5374 44.5 28" stroke="white" stroke-width="3"/>
<rect x="31.5" y="3.5" width="2" height="33" fill="white" stroke="white"/>
<rect x="34.5" y="17.5" width="22" height="2" fill="white" stroke="white"/>
<rect x="46.5" y="20.5" width="1" height="15" fill="white" stroke="white"/>
<rect x="46.5" y="20.5" width="2" height="15" fill="white" stroke="white"/>
<rect x="40.5" y="23.5" width="2" height="5" fill="white" stroke="white"/>
<rect x="35.5" y="28.5" width="2" height="11" transform="rotate(-90 35.5 28.5)" fill="white" stroke="white"/>
</svg>
