<svg width="64" height="37" viewBox="0 0 64 37" fill="none" xmlns="http://www.w3.org/2000/svg">
<path d="M50.4912 1.5C53.1059 1.5 55.4145 2.33416 57.3477 3.99414L57.7285 4.33789L57.7295 4.33887C59.7945 6.28318 60.8535 8.70953 60.8535 11.5293C60.8534 14.7597 59.5243 17.5419 57.0068 19.8145L57.0078 19.8154C55.8976 20.833 54.2643 22.1601 52.1328 23.7881L52.1338 23.7891C49.5889 25.7418 48.0997 26.9301 47.5811 27.4072C46.7716 28.1746 46.1364 28.9308 45.6543 29.6719H55.6455L55.8047 27.9814C55.8455 27.5135 55.9986 26.932 56.4551 26.4629C56.9433 25.9613 57.5646 25.8047 58.0938 25.8047H59.3535C59.7333 25.8047 60.2914 25.8687 60.7832 26.2373C61.3562 26.667 61.5604 27.2922 61.5605 27.835C61.5605 28.1119 61.5409 28.3962 61.5049 28.6846L60.8193 34.1855L60.6562 35.5H38.4561L38.5635 33.8994C38.8387 29.8039 40.459 26.3138 43.4004 23.5029L43.4033 23.499C44.6297 22.3349 46.1806 21.0776 48.041 19.7275L48.043 19.7266C50.2631 18.1202 51.7161 16.9012 52.4912 16.0508C53.8477 14.5395 54.4277 13.0707 54.4277 11.6172C54.4277 10.2606 54.046 9.30392 53.377 8.60156L53.2324 8.45703C52.471 7.72658 51.4311 7.30566 49.9609 7.30566C48.1392 7.30569 47.0342 7.80777 46.3555 8.56738C45.648 9.35914 45.1631 10.6973 45.1631 12.8545C45.1631 13.1076 45.1532 13.3615 45.1221 13.5918C45.1026 13.7361 45.0488 14.0967 44.8369 14.4434L44.8389 14.4443C44.83 14.4591 44.8187 14.4721 44.8096 14.4863C44.7972 14.5053 44.7859 14.5252 44.7725 14.5439L44.7705 14.542C44.4617 14.9869 44.0282 15.1856 43.7383 15.2734C43.4197 15.3699 43.096 15.3935 42.8232 15.3936H41.6074C41.0885 15.3935 40.0051 15.2804 39.4922 14.2549L39.4727 14.2148L39.4551 14.1748C39.319 13.8572 39.297 13.5059 39.2881 13.3809C39.2734 13.1752 39.2676 12.9285 39.2676 12.6553C39.2677 9.38008 40.2491 6.6167 42.3418 4.54199L42.3457 4.53809C44.4475 2.47169 47.2184 1.50005 50.4912 1.5Z" stroke="#222222" stroke-width="3"/>
<path d="M27.5801 1.5L26.3789 3.71484L9.56836 34.7148L9.14258 35.5H2.54102L3.74219 33.2852L20.5527 2.28516L20.9785 1.5H27.5801Z" stroke="#222222" stroke-width="3"/>
<rect x="2.5" y="16.5" width="59" height="4" fill="#222222" stroke="#222222" stroke-width="3"/>
</svg>
