<svg width="61" height="37" viewBox="0 0 61 37" fill="none" xmlns="http://www.w3.org/2000/svg">
<path d="M59.5 1.5V6.47656L59.418 6.71387L50.2539 33.3232C50.1616 33.5982 50.0762 33.8365 50 34.0264C49.9618 34.1216 49.9185 34.2234 49.8711 34.3193C49.8398 34.3825 49.7489 34.5674 49.5947 34.7432L49.5625 34.7793L49.5293 34.8125C49.1868 35.156 48.7776 35.3147 48.4629 35.3936C48.1394 35.4746 47.8025 35.5 47.4844 35.5H45.7148C45.332 35.5 44.8941 35.4747 44.5049 35.3564C44.2372 35.2751 43.309 34.9166 43.1943 33.8984L43.1826 33.6865L43.1895 33.5381C43.2016 33.3974 43.2279 33.2829 43.2402 33.2295C43.2634 33.1293 43.2923 33.0257 43.3223 32.9277C43.3828 32.7301 43.4673 32.4869 43.5693 32.208L52.5703 7.32227H42.6982L42.5391 8.90625L42.5381 8.91895L42.5361 8.93164C42.5096 9.15755 42.4801 9.36831 42.4443 9.54785C42.4265 9.63706 42.4023 9.74143 42.3701 9.84668C42.3458 9.92605 42.2841 10.12 42.1523 10.3203L42.1084 10.3867L42.0576 10.4482C41.708 10.8733 41.2508 11.0259 40.9961 11.0879C40.7119 11.157 40.42 11.1748 40.1621 11.1748H38.7617C38.4022 11.1748 37.8793 11.1284 37.4023 10.834C36.8063 10.4659 36.5 9.84887 36.5 9.2041C36.5 9.04934 36.5154 8.86643 36.5322 8.69727V8.69531L37.1221 2.84961L37.2578 1.5H59.5Z" stroke="#222222" stroke-width="3"/>
<path d="M21.5928 1.5C22.1036 1.50005 22.7459 1.65366 23.2285 2.20117C23.6793 2.71265 23.7734 3.32702 23.7734 3.77246V5.1416C23.7734 5.58706 23.6793 6.20129 23.2285 6.71289C22.7459 7.26058 22.1036 7.41401 21.5928 7.41406H9.93848L9.6377 12.999C10.8685 12.5172 12.1856 12.2754 13.5791 12.2754C16.7241 12.2754 19.3848 13.276 21.4111 15.3574L21.6055 15.5615L21.6074 15.5635C23.566 17.6936 24.5 20.402 24.5 23.5566C24.4999 26.9009 23.5138 29.7633 21.4492 32.0117L21.4424 32.0186C19.2605 34.365 16.3753 35.5 12.9434 35.5C9.80299 35.5 7.09462 34.6455 4.94336 32.832C2.63424 30.9017 1.50011 28.2857 1.5 25.1465C1.5 24.9132 1.50377 24.7037 1.51367 24.5303C1.51966 24.4253 1.53401 24.1339 1.62598 23.8652L1.6543 23.7842L1.69043 23.708C2.16526 22.7075 3.18026 22.5645 3.7041 22.5645H5.24707C5.48919 22.5645 5.74668 22.5769 5.99121 22.6201C6.17627 22.6529 6.53954 22.7336 6.87891 22.9854L6.88086 22.9844C6.89594 22.9954 6.90936 23.0083 6.92383 23.0195C6.93461 23.0281 6.94633 23.036 6.95703 23.0449L6.95508 23.0459C7.34596 23.365 7.5085 23.7747 7.5791 24.0322C7.65842 24.3217 7.67773 24.613 7.67773 24.8594C7.67782 26.3089 8.13528 27.4088 9.00781 28.2793C9.87317 29.1425 10.9969 29.6074 12.5117 29.6074C14.3109 29.6074 15.5862 29.0322 16.5166 27.9746C17.4127 26.9438 17.9131 25.5728 17.9131 23.7324C17.913 21.9666 17.4639 20.6476 16.6738 19.6562H16.6729C15.8452 18.6462 14.7039 18.1016 13.0566 18.1016C11.7578 18.1016 10.4583 18.5368 9.13184 19.5107C8.52621 19.9573 7.81929 20.2207 7.04102 20.2207H5.61035C5.27806 20.2207 4.77651 20.1778 4.31348 19.8926C3.73111 19.5338 3.42984 18.9312 3.42969 18.3018V18.2314L3.43652 18.1621L3.45605 17.9424L4.31738 2.91406L4.39844 1.5H21.5928Z" stroke="#222222" stroke-width="3"/>
</svg>
