<svg width="64" height="37" viewBox="0 0 64 37" fill="none" xmlns="http://www.w3.org/2000/svg">
<path d="M51.4307 1.5C54.0453 1.5 56.3539 2.33416 58.2871 3.99414L58.668 4.33789L58.6689 4.33887C60.734 6.28318 61.793 8.70953 61.793 11.5293C61.7929 14.7597 60.4637 17.5419 57.9463 19.8145L57.9473 19.8154C56.837 20.833 55.2037 22.1601 53.0723 23.7881L53.0732 23.7891C50.5284 25.7418 49.0391 26.9301 48.5205 27.4072C47.711 28.1746 47.0759 28.9308 46.5938 29.6719H56.585L56.7441 27.9814C56.785 27.5135 56.938 26.932 57.3945 26.4629C57.8828 25.9613 58.504 25.8047 59.0332 25.8047H60.293C60.6728 25.8047 61.2309 25.8687 61.7227 26.2373C62.2957 26.667 62.4999 27.2922 62.5 27.835C62.5 28.1119 62.4804 28.3962 62.4443 28.6846L61.7588 34.1855L61.5957 35.5H39.3955L39.5029 33.8994C39.7782 29.8039 41.3984 26.3138 44.3398 23.5029L44.3428 23.499C45.5692 22.3349 47.12 21.0776 48.9805 19.7275L48.9824 19.7266C51.2025 18.1202 52.6555 16.9012 53.4307 16.0508C54.7872 14.5395 55.3672 13.0707 55.3672 11.6172C55.3672 10.2606 54.9854 9.30392 54.3164 8.60156L54.1719 8.45703C53.4104 7.72658 52.3705 7.30566 50.9004 7.30566C49.0787 7.30569 47.9737 7.80777 47.2949 8.56738C46.5874 9.35914 46.1026 10.6973 46.1025 12.8545C46.1025 13.1076 46.0927 13.3615 46.0615 13.5918C46.042 13.7361 45.9883 14.0967 45.7764 14.4434L45.7783 14.4443C45.7695 14.4591 45.7581 14.4721 45.749 14.4863C45.7366 14.5053 45.7253 14.5252 45.7119 14.5439L45.71 14.542C45.4012 14.9869 44.9676 15.1856 44.6777 15.2734C44.3591 15.3699 44.0355 15.3935 43.7627 15.3936H42.5469C42.028 15.3935 40.9446 15.2804 40.4316 14.2549L40.4121 14.2148L40.3945 14.1748C40.2584 13.8572 40.2365 13.5059 40.2275 13.3809C40.2129 13.1752 40.207 12.9285 40.207 12.6553C40.2071 9.38008 41.1886 6.6167 43.2812 4.54199L43.2852 4.53809C45.387 2.47169 48.1578 1.50005 51.4307 1.5Z" stroke="#222222" stroke-width="3"/>
<path d="M28.5195 1.5L27.3184 3.71484L10.5078 34.7148L10.082 35.5H3.48047L4.68164 33.2852L21.4922 2.28516L21.918 1.5H28.5195Z" stroke="#222222" stroke-width="3"/>
</svg>
