<svg width="62" height="39" viewBox="0 0 62 39" fill="none" xmlns="http://www.w3.org/2000/svg">
<path d="M14.4307 1.5C17.0453 1.5 19.3539 2.33416 21.2871 3.99414L21.668 4.33789L21.6689 4.33887C23.734 6.28318 24.793 8.70953 24.793 11.5293C24.7929 14.7597 23.4637 17.5419 20.9463 19.8145L20.9473 19.8154C19.837 20.833 18.2037 22.1601 16.0723 23.7881L16.0732 23.7891C13.5284 25.7418 12.0391 26.9301 11.5205 27.4072C10.711 28.1746 10.0759 28.9308 9.59375 29.6719H19.585L19.7441 27.9814C19.785 27.5135 19.938 26.932 20.3945 26.4629C20.8828 25.9613 21.504 25.8047 22.0332 25.8047H23.293C23.6728 25.8047 24.2309 25.8687 24.7227 26.2373C25.2957 26.667 25.4999 27.2922 25.5 27.835C25.5 28.1119 25.4804 28.3962 25.4443 28.6846L24.7588 34.1855L24.5957 35.5H2.39551L2.50293 33.8994C2.77817 29.8039 4.39845 26.3138 7.33984 23.5029L7.34277 23.499C8.56916 22.3349 10.12 21.0776 11.9805 19.7275L11.9824 19.7266C14.2025 18.1202 15.6555 16.9012 16.4307 16.0508C17.7872 14.5395 18.3672 13.0707 18.3672 11.6172C18.3672 10.2606 17.9854 9.30392 17.3164 8.60156L17.1719 8.45703C16.4104 7.72658 15.3705 7.30566 13.9004 7.30566C12.0787 7.30569 10.9737 7.80777 10.2949 8.56738C9.58743 9.35914 9.10255 10.6973 9.10254 12.8545C9.10254 13.1076 9.09266 13.3615 9.06152 13.5918C9.04201 13.7361 8.98829 14.0967 8.77637 14.4434L8.77832 14.4443C8.76948 14.4591 8.75814 14.4721 8.74902 14.4863C8.73665 14.5053 8.72531 14.5252 8.71191 14.5439L8.70996 14.542C8.40119 14.9869 7.96763 15.1856 7.67773 15.2734C7.35912 15.3699 7.03548 15.3935 6.7627 15.3936H5.54688C5.02799 15.3935 3.94455 15.2804 3.43164 14.2549L3.41211 14.2148L3.39453 14.1748C3.25841 13.8572 3.23647 13.5059 3.22754 13.3809C3.21286 13.1752 3.20703 12.9285 3.20703 12.6553C3.20712 9.38008 4.18859 6.6167 6.28125 4.54199L6.28516 4.53809C8.38695 2.47169 11.1578 1.50005 14.4307 1.5Z" stroke="white" stroke-width="3"/>
<path d="M49.002 1.5C51.7817 1.5 54.2189 2.25577 56.2129 3.84473H56.2119C58.4884 5.63624 59.6122 8.11712 59.6123 11.1162C59.6123 13.1633 59.1667 14.9885 58.165 16.4893C57.7047 17.179 57.1432 17.7715 56.4951 18.2754C57.4139 18.9241 58.1939 19.6944 58.8164 20.5957C59.9665 22.261 60.5 24.2551 60.5 26.4922C60.4999 29.7827 59.4252 32.5479 57.1836 34.6201L57.1787 34.624C55.0603 36.5671 52.3874 37.5 49.2832 37.5C46.165 37.4999 43.5155 36.526 41.4883 34.4824L41.4834 34.4775V34.4766C39.4468 32.4046 38.5 29.6445 38.5 26.376C38.5 26.0225 38.509 25.7044 38.5322 25.4355C38.551 25.2177 38.5907 24.8608 38.7275 24.5381C39.2036 23.4114 40.304 23.1602 41.0605 23.1602H41.6445C41.9517 23.1602 42.2683 23.181 42.5693 23.2441C42.8199 23.2967 43.1438 23.3952 43.4502 23.6035L43.5801 23.6992L43.7285 23.832C44.0509 24.1517 44.2047 24.5316 44.2822 24.8154C44.3736 25.15 44.3994 25.4986 44.3994 25.8193C44.3994 28.0206 44.8876 29.3915 45.6006 30.2031C46.2812 30.9777 47.3833 31.4854 49.1973 31.4854C50.7794 31.4853 51.9028 31.0079 52.7295 30.1553L52.7363 30.1484C53.5704 29.2986 54.0596 28.0931 54.0596 26.3525C54.0595 24.7561 53.5488 23.5996 52.5977 22.7275L52.5889 22.7197C51.6919 21.8845 50.5306 21.4287 48.9805 21.4287C48.6907 21.4287 48.2446 21.3992 47.8203 21.1797C47.5863 21.0586 47.3278 20.8628 47.1318 20.5586C46.9313 20.2473 46.8535 19.9108 46.8535 19.6045V17.5635C46.8535 16.9532 47.1029 16.3052 47.7119 15.8809C48.2226 15.5251 48.8022 15.4609 49.2188 15.4609C50.4663 15.4609 51.4214 15.0969 52.1855 14.4219L52.1865 14.4209C52.9723 13.728 53.3886 12.8241 53.3887 11.5576C53.3887 10.2445 52.9644 9.28889 52.1611 8.55078L52.0098 8.42285C51.2427 7.80073 50.2972 7.46876 49.0889 7.46875C47.8694 7.46875 46.9074 7.81115 46.1191 8.45312C45.3054 9.12566 44.8975 9.98106 44.8975 11.1631C44.8975 11.6244 44.7815 12.2465 44.2871 12.7432C43.7915 13.2409 43.1688 13.3584 42.7051 13.3584H41.4062C40.9757 13.3584 39.9319 13.2971 39.3809 12.3691L39.375 12.3594C39.1787 12.0229 39.1245 11.6659 39.1016 11.4844C39.0726 11.2551 39.0625 11.0025 39.0625 10.7461C39.0625 7.94443 40.1152 5.59546 42.2217 3.8418L42.2227 3.83984C44.1194 2.26505 46.4084 1.50006 49.002 1.5Z" stroke="white" stroke-width="3"/>
</svg>
