<svg width="60" height="39" viewBox="0 0 60 39" fill="none" xmlns="http://www.w3.org/2000/svg">
<path d="M13.6148 16.3443V9.68385C13.6148 8.76747 14.3577 8.02459 15.2741 8.02459V8.02459C16.1905 8.02459 16.9333 7.28172 16.9333 6.36533V4C16.9333 2.89543 16.0379 2 14.9333 2H4C2.89543 2 2 2.89543 2 4V6.36533C2 7.28171 2.74288 8.02459 3.65926 8.02459V8.02459C4.57564 8.02459 5.31852 8.76747 5.31852 9.68385V29.3161C5.31852 30.2325 4.57564 30.9754 3.65926 30.9754V30.9754C2.74288 30.9754 2 31.7183 2 32.6347V35C2 36.1046 2.89543 37 4 37H14.9333C16.0379 37 16.9333 36.1046 16.9333 35V32.6347C16.9333 31.7183 16.1905 30.9754 15.2741 30.9754V30.9754C14.3577 30.9754 13.6148 30.2325 13.6148 29.3161V22.9426" stroke="#222222" stroke-width="3"/>
<rect x="12.6191" y="18.0657" width="1.99111" height="2.86885" rx="0.995556" fill="#222222"/>
<path d="M34.148 16.3443V9.68385C34.148 8.76747 34.8909 8.02459 35.8073 8.02459V8.02459C36.7237 8.02459 37.4665 7.28172 37.4665 6.36533V4C37.4665 2.89543 36.5711 2 35.4665 2H24.5332C23.4286 2 22.5332 2.89543 22.5332 4V6.36533C22.5332 7.28171 23.2761 8.02459 24.1925 8.02459V8.02459C25.1088 8.02459 25.8517 8.76747 25.8517 9.68385V29.3161C25.8517 30.2325 25.1088 30.9754 24.1925 30.9754V30.9754C23.2761 30.9754 22.5332 31.7183 22.5332 32.6347V35C22.5332 36.1046 23.4286 37 24.5332 37H35.4665C36.5711 37 37.4665 36.1046 37.4665 35V32.6347C37.4665 31.7183 36.7237 30.9754 35.8073 30.9754V30.9754C34.8909 30.9754 34.148 30.2325 34.148 29.3161V22.9426" stroke="#222222" stroke-width="3"/>
<rect x="33.1523" y="18.0657" width="1.99111" height="2.86885" rx="0.995556" fill="#222222"/>
<path d="M54.6812 16.3443V9.68385C54.6812 8.76747 55.4241 8.02459 56.3405 8.02459V8.02459C57.2569 8.02459 57.9997 7.28172 57.9997 6.36533V4C57.9997 2.89543 57.1043 2 55.9997 2H45.0664C43.9618 2 43.0664 2.89543 43.0664 4V6.36533C43.0664 7.28171 43.8093 8.02459 44.7257 8.02459V8.02459C45.642 8.02459 46.3849 8.76747 46.3849 9.68385V29.3161C46.3849 30.2325 45.642 30.9754 44.7257 30.9754V30.9754C43.8093 30.9754 43.0664 31.7183 43.0664 32.6347V35C43.0664 36.1046 43.9618 37 45.0664 37H55.9997C57.1043 37 57.9997 36.1046 57.9997 35V32.6347C57.9997 31.7183 57.2569 30.9754 56.3405 30.9754V30.9754C55.4241 30.9754 54.6812 30.2325 54.6812 29.3161V22.9426" stroke="#222222" stroke-width="3"/>
<rect x="53.6865" y="18.0657" width="1.99111" height="2.86885" rx="0.995556" fill="#222222"/>
</svg>
